<svg xmlns="http://www.w3.org/2000/svg" xmlns:xlink="http://www.w3.org/1999/xlink" viewBox="0 0 119.167 115.167" fill="#fff" fill-rule="evenodd" stroke="#000" stroke-linecap="round" stroke-linejoin="round"><use xlink:href="#A" x="2.083" y="2.083"/><symbol id="A" overflow="visible"><g stroke="none" fill="#fcea2b" fill-rule="nonzero"><use xlink:href="#C"/><path d="M70.833 32.488l12.5 19.4-4.167 10.417-25 10.417.363 29.167h-7.133l-6.833-34.14 11.881-10.235c1.983-1.598 1.892-1.85 1.892-2.958 0-1.5-1.079-5.271-1.079-5.271l-6.64-16.927 2.342-10.677 6.121-1.952 5.99-.129 9.764 12.89zm-10.417 38.15l4.167 20.833h6.25v-18.75L75 64.388"/></g><g fill="none" stroke-width="4.167"><use xlink:href="#C" stroke-linejoin="miter"/><path d="M69.875 30.375l11.25 17.979c1.215 1.944 1.513 5.271.66 7.402l-1.071 2.677c-.854 2.125-3.279 4.59-5.396 5.473l-17.312 7.208c-2.115.883-3.823 3.479-3.792 5.771l.26 20.833c.029 2.292-1.554 4.167-3.515 4.167s-3.937-1.84-4.385-4.083l-5.2-25.969c-.45-2.246.75-5.117 2.663-6.375l9.083-5.979"/><path d="M70.542 31.408l-5.283-8.154c-2.667-3.75-8.125-5.375-12.135-3.656s-6.194 6.708-4.854 11.094l1.792 4.64m6.538-8.444l1.4 6.875c.458 2.246-.608 5.279-2.375 6.744l-5.792 4.806"/><use xlink:href="#D"/><use xlink:href="#E"/><path d="M91.667 74.804l-4.167 6.25"/><use xlink:href="#C" stroke-linejoin="miter"/><path d="M73.577 36.09l7.567 12.25c1.204 1.952 1.494 5.288.642 7.417l-1.071 2.677c-.833 2.125-3.279 4.59-5.417 5.473l-17.292 7.208c-2.115.883-3.823 3.479-3.792 5.771l.26 20.833c.029 2.292-1.554 4.167-3.515 4.167s-3.958-1.84-4.385-4.083l-5.2-25.969c-.45-2.246.75-5.117 2.663-6.375l9.083-5.979m24.181-17.646L65.26 23.25c-2.667-3.75-8.125-5.375-12.135-3.656s-6.194 6.708-4.854 11.094l1.792 4.64m6.535-8.44l1.4 6.875c.458 2.246-.608 5.279-2.375 6.744l-5.792 4.806"/><use xlink:href="#D"/><use xlink:href="#E"/><path d="M91.667 74.804l-4.167 6.25"/></g></symbol><defs ><path id="C" d="M41.602 6.25c0-3.462 2.788-6.25 6.25-6.25s6.25 2.788 6.25 6.25-2.788 6.25-6.25 6.25-6.25-2.787-6.25-6.25z"/><path id="D" d="M60.417 70.637l3.348 16.75c.45 2.244 2.225 4.083 3.944 4.083s3.125-1.875 3.125-4.167V76.887c0-2.292.837-5.844 1.865-7.896L75 64.387"/><path id="E" d="M0 106.054l4.167 4.167h100m10.417-10.417H62.5m-25 0H18.75l-4.167-4.167m31.25-52.083l47.917 37.5"/></defs></svg>